# xmcd
#
# Track frame offsets: 
#        150
#        23820
#        47297
#        77869
#        95363
#        127265
#        142576
#        160982
#        197525
#        224317
#        238014
#        249403
#
# Disc length: 3709 seconds
#
# Revision: 0
# Processed by: cddbd v1.5.2PL0 Copyright (c) Steve Scherf et al.
# Submitted via: ExactAudioCopyFreeDBPlugin 1.0
#
DISCID=980e7b0c
DTITLE=Honky Tonk Ramblers - slow bone
DYEAR=2013
DGENRE=Blues
TTITLE0=i wonder why
TTITLE1=everybody wants to win
TTITLE2=life is a one way ticket
TTITLE3=big boss man
TTITLE4=how long
TTITLE5=stop what you're doing
TTITLE6=the hustle is on
TTITLE7=in the evening
TTITLE8=just a little bit
TTITLE9=matchbox blues
TTITLE10=talk to your daughter
TTITLE11=rick's blues
EXTD=
EXTT0=
EXTT1=
EXTT2=
EXTT3=
EXTT4=
EXTT5=
EXTT6=
EXTT7=
EXTT8=
EXTT9=
EXTT10=
EXTT11=
PLAYORDER=
